# xmcd CD database file
#
# Track frame offsets:
#	225
#	19125
#	35140
#	51389
#
# Disc length: 882 seconds
#
# Revision: 0
# Processed by: cddbd v1.5.1PL0 Copyright (c) Steve Scherf et al.
# Submitted via: CDex 1.51
#
DISCID=34036f04
DTITLE=Papillon - Papillon
DYEAR=1998
DGENRE=Rock
TTITLE0=Papillon
TTITLE1=Into You
TTITLE2=Until the Day
TTITLE3=Rollercoaster
EXTD=YEAR: 1998
EXTT0=
EXTT1=
EXTT2=
EXTT3=
PLAYORDER=
